<mxfile host="Electron" agent="Mozilla/5.0 (Macintosh; Intel Mac OS X 10_15_7) AppleWebKit/537.36 (KHTML, like Gecko) draw.io/24.7.17 Chrome/128.0.6613.36 Electron/32.0.1 Safari/537.36" version="24.7.17">
  <diagram id="C5RBs43oDa-KdzZeNtuy" name="Page-1">
    <mxGraphModel dx="1114" dy="854" grid="1" gridSize="10" guides="1" tooltips="1" connect="1" arrows="1" fold="1" page="1" pageScale="1" pageWidth="827" pageHeight="1169" math="0" shadow="0">
      <root>
        <mxCell id="WIyWlLk6GJQsqaUBKTNV-0" />
        <mxCell id="WIyWlLk6GJQsqaUBKTNV-1" parent="WIyWlLk6GJQsqaUBKTNV-0" />
        <mxCell id="B5MP2yaadgVCE5u6oOW5-1" value="" style="rounded=1;whiteSpace=wrap;html=1;fillColor=none;" parent="WIyWlLk6GJQsqaUBKTNV-1" vertex="1">
          <mxGeometry x="320" y="170" width="620" height="330" as="geometry" />
        </mxCell>
        <mxCell id="gpMVGgdq6QNUZybopsVq-2" value="" style="shape=partialRectangle;whiteSpace=wrap;html=1;bottom=1;right=1;left=1;top=0;fillColor=none;routingCenterX=-0.5;strokeWidth=2;dashed=1;direction=south;flipH=0;" parent="WIyWlLk6GJQsqaUBKTNV-1" vertex="1">
          <mxGeometry x="390" y="410" width="180" height="80" as="geometry" />
        </mxCell>
        <mxCell id="gpMVGgdq6QNUZybopsVq-1" value="" style="shape=partialRectangle;whiteSpace=wrap;html=1;bottom=1;right=1;left=1;top=0;fillColor=none;routingCenterX=-0.5;strokeWidth=2;dashed=1;direction=south;flipH=1;" parent="WIyWlLk6GJQsqaUBKTNV-1" vertex="1">
          <mxGeometry x="689" y="410" width="161" height="80" as="geometry" />
        </mxCell>
        <mxCell id="B5MP2yaadgVCE5u6oOW5-61" value="" style="rounded=0;whiteSpace=wrap;html=1;fillColor=none;dashed=1;strokeWidth=2;" parent="WIyWlLk6GJQsqaUBKTNV-1" vertex="1">
          <mxGeometry x="330" y="85" width="110" height="155" as="geometry" />
        </mxCell>
        <mxCell id="B5MP2yaadgVCE5u6oOW5-34" value="" style="verticalLabelPosition=bottom;verticalAlign=top;html=1;shape=mxgraph.basic.acute_triangle;dx=0.5;direction=west;fillColor=none;" parent="WIyWlLk6GJQsqaUBKTNV-1" vertex="1">
          <mxGeometry x="578" y="190" width="100" height="40" as="geometry" />
        </mxCell>
        <mxCell id="B5MP2yaadgVCE5u6oOW5-128" value="" style="shape=partialRectangle;whiteSpace=wrap;html=1;bottom=1;right=1;left=1;top=0;fillColor=none;routingCenterX=-0.5;dashed=1;strokeWidth=2;flipV=1;" parent="WIyWlLk6GJQsqaUBKTNV-1" vertex="1">
          <mxGeometry x="571" y="176" width="115" height="234" as="geometry" />
        </mxCell>
        <mxCell id="-FWcwAjbTz1GdDVnPAq6-1" value="" style="rounded=0;whiteSpace=wrap;html=1;fillColor=none;dashed=1;strokeWidth=2;dashPattern=8 8;" parent="WIyWlLk6GJQsqaUBKTNV-1" vertex="1">
          <mxGeometry x="325" y="186" width="480" height="50" as="geometry" />
        </mxCell>
        <mxCell id="B5MP2yaadgVCE5u6oOW5-81" value="" style="rounded=0;whiteSpace=wrap;html=1;fillColor=none;dashed=1;strokeWidth=2;" parent="WIyWlLk6GJQsqaUBKTNV-1" vertex="1">
          <mxGeometry x="450" y="177" width="114" height="220" as="geometry" />
        </mxCell>
        <mxCell id="B5MP2yaadgVCE5u6oOW5-65" value="" style="rounded=0;whiteSpace=wrap;html=1;fillColor=none;dashed=1;strokeWidth=2;" parent="WIyWlLk6GJQsqaUBKTNV-1" vertex="1">
          <mxGeometry x="811" y="176" width="113" height="144" as="geometry" />
        </mxCell>
        <mxCell id="B5MP2yaadgVCE5u6oOW5-2" value="" style="rounded=1;whiteSpace=wrap;html=1;fillColor=none;" parent="WIyWlLk6GJQsqaUBKTNV-1" vertex="1">
          <mxGeometry x="317" y="80" width="620" height="60" as="geometry" />
        </mxCell>
        <mxCell id="B5MP2yaadgVCE5u6oOW5-3" value="&lt;div&gt;&lt;font face=&quot;Courier New&quot; style=&quot;font-size: 20px;&quot;&gt;&lt;b&gt;ax2&lt;/b&gt;&lt;/font&gt;&lt;/div&gt;" style="text;strokeColor=none;align=center;fillColor=none;html=1;verticalAlign=middle;whiteSpace=wrap;rounded=0;" parent="WIyWlLk6GJQsqaUBKTNV-1" vertex="1">
          <mxGeometry x="599.5" y="189" width="60" height="30" as="geometry" />
        </mxCell>
        <mxCell id="B5MP2yaadgVCE5u6oOW5-4" value="" style="verticalLabelPosition=bottom;verticalAlign=top;html=1;shape=mxgraph.basic.acute_triangle;dx=0.5;direction=west;fillColor=none;" parent="WIyWlLk6GJQsqaUBKTNV-1" vertex="1">
          <mxGeometry x="337" y="91" width="100" height="40" as="geometry" />
        </mxCell>
        <mxCell id="B5MP2yaadgVCE5u6oOW5-8" value="" style="verticalLabelPosition=bottom;verticalAlign=top;html=1;shape=mxgraph.basic.acute_triangle;dx=0.5;direction=west;" parent="WIyWlLk6GJQsqaUBKTNV-1" vertex="1">
          <mxGeometry x="337" y="191" width="100" height="40" as="geometry" />
        </mxCell>
        <mxCell id="B5MP2yaadgVCE5u6oOW5-9" value="&lt;font face=&quot;Courier New&quot; style=&quot;font-size: 20px;&quot;&gt;&lt;b&gt;ax4&lt;/b&gt;&lt;/font&gt;" style="text;strokeColor=none;align=center;fillColor=none;html=1;verticalAlign=middle;whiteSpace=wrap;rounded=0;" parent="WIyWlLk6GJQsqaUBKTNV-1" vertex="1">
          <mxGeometry x="357" y="190" width="60" height="30" as="geometry" />
        </mxCell>
        <mxCell id="B5MP2yaadgVCE5u6oOW5-10" value="" style="shape=offPageConnector;whiteSpace=wrap;html=1;flipV=1;" parent="WIyWlLk6GJQsqaUBKTNV-1" vertex="1">
          <mxGeometry x="817" y="191" width="100" height="40" as="geometry" />
        </mxCell>
        <mxCell id="B5MP2yaadgVCE5u6oOW5-11" value="&lt;font face=&quot;Courier New&quot; style=&quot;font-size: 20px;&quot;&gt;&lt;b&gt;con1&lt;/b&gt;&lt;/font&gt;" style="text;strokeColor=none;align=center;fillColor=none;html=1;verticalAlign=middle;whiteSpace=wrap;rounded=0;" parent="WIyWlLk6GJQsqaUBKTNV-1" vertex="1">
          <mxGeometry x="837" y="197" width="60" height="30" as="geometry" />
        </mxCell>
        <mxCell id="B5MP2yaadgVCE5u6oOW5-12" value="" style="shape=offPageConnector;whiteSpace=wrap;html=1;flipV=0;" parent="WIyWlLk6GJQsqaUBKTNV-1" vertex="1">
          <mxGeometry x="817" y="270" width="100" height="40" as="geometry" />
        </mxCell>
        <mxCell id="B5MP2yaadgVCE5u6oOW5-13" value="&lt;font face=&quot;Courier New&quot; style=&quot;font-size: 20px;&quot;&gt;&lt;b&gt;inf1&lt;/b&gt;&lt;/font&gt;" style="text;strokeColor=none;align=center;fillColor=none;html=1;verticalAlign=middle;whiteSpace=wrap;rounded=0;" parent="WIyWlLk6GJQsqaUBKTNV-1" vertex="1">
          <mxGeometry x="837" y="272" width="60" height="30" as="geometry" />
        </mxCell>
        <mxCell id="B5MP2yaadgVCE5u6oOW5-14" value="" style="shape=offPageConnector;whiteSpace=wrap;html=1;flipV=0;" parent="WIyWlLk6GJQsqaUBKTNV-1" vertex="1">
          <mxGeometry x="817" y="350" width="100" height="40" as="geometry" />
        </mxCell>
        <mxCell id="B5MP2yaadgVCE5u6oOW5-15" value="&lt;font face=&quot;Courier New&quot; style=&quot;font-size: 20px;&quot;&gt;&lt;b&gt;inf2&lt;/b&gt;&lt;/font&gt;" style="text;strokeColor=none;align=center;fillColor=none;html=1;verticalAlign=middle;whiteSpace=wrap;rounded=0;" parent="WIyWlLk6GJQsqaUBKTNV-1" vertex="1">
          <mxGeometry x="837" y="353" width="60" height="30" as="geometry" />
        </mxCell>
        <mxCell id="B5MP2yaadgVCE5u6oOW5-23" value="" style="endArrow=classic;html=1;rounded=0;exitX=0;exitY=0;exitDx=50;exitDy=0;exitPerimeter=0;entryX=0.5;entryY=0;entryDx=0;entryDy=0;" parent="WIyWlLk6GJQsqaUBKTNV-1" source="B5MP2yaadgVCE5u6oOW5-7" target="B5MP2yaadgVCE5u6oOW5-16" edge="1">
          <mxGeometry width="50" height="50" relative="1" as="geometry">
            <mxPoint x="677" y="449" as="sourcePoint" />
            <mxPoint x="727" y="399" as="targetPoint" />
          </mxGeometry>
        </mxCell>
        <mxCell id="B5MP2yaadgVCE5u6oOW5-24" value="" style="endArrow=classic;html=1;rounded=0;entryX=0.6;entryY=0;entryDx=0;entryDy=0;exitX=0.5;exitY=1;exitDx=0;exitDy=0;entryPerimeter=0;" parent="WIyWlLk6GJQsqaUBKTNV-1" source="B5MP2yaadgVCE5u6oOW5-16" target="B5MP2yaadgVCE5u6oOW5-20" edge="1">
          <mxGeometry width="50" height="50" relative="1" as="geometry">
            <mxPoint x="397" y="409" as="sourcePoint" />
            <mxPoint x="727" y="399" as="targetPoint" />
          </mxGeometry>
        </mxCell>
        <mxCell id="B5MP2yaadgVCE5u6oOW5-25" value="" style="endArrow=classic;html=1;rounded=0;exitX=0;exitY=0;exitDx=50;exitDy=0;exitPerimeter=0;entryX=0.42;entryY=0.05;entryDx=0;entryDy=0;entryPerimeter=0;" parent="WIyWlLk6GJQsqaUBKTNV-1" source="B5MP2yaadgVCE5u6oOW5-8" target="B5MP2yaadgVCE5u6oOW5-20" edge="1">
          <mxGeometry width="50" height="50" relative="1" as="geometry">
            <mxPoint x="677" y="370" as="sourcePoint" />
            <mxPoint x="727" y="320" as="targetPoint" />
          </mxGeometry>
        </mxCell>
        <mxCell id="B5MP2yaadgVCE5u6oOW5-26" value="" style="endArrow=classic;html=1;rounded=0;exitX=0;exitY=0;exitDx=50;exitDy=0;exitPerimeter=0;entryX=0.5;entryY=0;entryDx=0;entryDy=0;" parent="WIyWlLk6GJQsqaUBKTNV-1" source="B5MP2yaadgVCE5u6oOW5-34" target="B5MP2yaadgVCE5u6oOW5-22" edge="1">
          <mxGeometry width="50" height="50" relative="1" as="geometry">
            <mxPoint x="677" y="370" as="sourcePoint" />
            <mxPoint x="727" y="320" as="targetPoint" />
          </mxGeometry>
        </mxCell>
        <mxCell id="B5MP2yaadgVCE5u6oOW5-27" value="" style="verticalLabelPosition=bottom;verticalAlign=top;html=1;shape=mxgraph.basic.acute_triangle;dx=0.5;direction=west;fillColor=none;" parent="WIyWlLk6GJQsqaUBKTNV-1" vertex="1">
          <mxGeometry x="457" y="91" width="100" height="40" as="geometry" />
        </mxCell>
        <mxCell id="B5MP2yaadgVCE5u6oOW5-28" value="&lt;font style=&quot;font-size: 11px;&quot; face=&quot;Courier New&quot;&gt;&lt;b style=&quot;&quot;&gt;someone_&lt;span style=&quot;background-color: initial;&quot;&gt;got&lt;/span&gt;&lt;/b&gt;&lt;/font&gt;&lt;div style=&quot;line-height: 60%; font-size: 11px;&quot;&gt;&lt;font style=&quot;font-size: 11px;&quot; face=&quot;Courier New&quot;&gt;&lt;b style=&quot;&quot;&gt;&lt;span style=&quot;background-color: initial;&quot;&gt;_an_a&lt;/span&gt;&lt;/b&gt;&lt;/font&gt;&lt;/div&gt;" style="text;strokeColor=none;align=center;fillColor=none;html=1;verticalAlign=middle;whiteSpace=wrap;rounded=0;" parent="WIyWlLk6GJQsqaUBKTNV-1" vertex="1">
          <mxGeometry x="477" y="85" width="60" height="30" as="geometry" />
        </mxCell>
        <mxCell id="B5MP2yaadgVCE5u6oOW5-29" value="" style="shape=offPageConnector;whiteSpace=wrap;html=1;flipV=1;fillColor=none;" parent="WIyWlLk6GJQsqaUBKTNV-1" vertex="1">
          <mxGeometry x="817" y="92" width="100" height="39" as="geometry" />
        </mxCell>
        <mxCell id="B5MP2yaadgVCE5u6oOW5-30" value="&lt;font face=&quot;Courier New&quot;&gt;&lt;b&gt;there_is_&lt;/b&gt;&lt;/font&gt;&lt;div style=&quot;line-height: 60%;&quot;&gt;&lt;font face=&quot;Courier New&quot;&gt;&lt;b&gt;someone_else&lt;/b&gt;&lt;/font&gt;&lt;/div&gt;" style="text;strokeColor=none;align=center;fillColor=none;html=1;verticalAlign=middle;whiteSpace=wrap;rounded=0;" parent="WIyWlLk6GJQsqaUBKTNV-1" vertex="1">
          <mxGeometry x="837" y="98" width="60" height="30" as="geometry" />
        </mxCell>
        <mxCell id="B5MP2yaadgVCE5u6oOW5-35" value="" style="verticalLabelPosition=bottom;verticalAlign=top;html=1;shape=mxgraph.basic.acute_triangle;dx=0.5;direction=west;" parent="WIyWlLk6GJQsqaUBKTNV-1" vertex="1">
          <mxGeometry x="697" y="190" width="100" height="40" as="geometry" />
        </mxCell>
        <mxCell id="B5MP2yaadgVCE5u6oOW5-36" value="&lt;div&gt;&lt;font face=&quot;Courier New&quot; style=&quot;font-size: 20px;&quot;&gt;&lt;b&gt;ax1&lt;/b&gt;&lt;/font&gt;&lt;/div&gt;" style="text;strokeColor=none;align=center;fillColor=none;html=1;verticalAlign=middle;whiteSpace=wrap;rounded=0;" parent="WIyWlLk6GJQsqaUBKTNV-1" vertex="1">
          <mxGeometry x="717" y="188" width="60" height="30" as="geometry" />
        </mxCell>
        <mxCell id="B5MP2yaadgVCE5u6oOW5-37" value="" style="endArrow=classic;html=1;rounded=0;entryX=0;entryY=0.5;entryDx=0;entryDy=0;exitX=1;exitY=0.5;exitDx=0;exitDy=0;" parent="WIyWlLk6GJQsqaUBKTNV-1" source="B5MP2yaadgVCE5u6oOW5-20" target="B5MP2yaadgVCE5u6oOW5-22" edge="1">
          <mxGeometry width="50" height="50" relative="1" as="geometry">
            <mxPoint x="567" y="240" as="sourcePoint" />
            <mxPoint x="617" y="190" as="targetPoint" />
          </mxGeometry>
        </mxCell>
        <mxCell id="B5MP2yaadgVCE5u6oOW5-38" value="" style="endArrow=classic;html=1;rounded=0;entryX=1;entryY=0.5;entryDx=0;entryDy=0;exitX=0;exitY=0.5;exitDx=0;exitDy=0;" parent="WIyWlLk6GJQsqaUBKTNV-1" source="B5MP2yaadgVCE5u6oOW5-18" target="B5MP2yaadgVCE5u6oOW5-22" edge="1">
          <mxGeometry width="50" height="50" relative="1" as="geometry">
            <mxPoint x="567" y="240" as="sourcePoint" />
            <mxPoint x="617" y="190" as="targetPoint" />
          </mxGeometry>
        </mxCell>
        <mxCell id="B5MP2yaadgVCE5u6oOW5-39" value="" style="endArrow=classic;html=1;rounded=0;entryX=0.5;entryY=1;entryDx=0;entryDy=0;entryPerimeter=0;exitX=0;exitY=0;exitDx=50;exitDy=0;exitPerimeter=0;" parent="WIyWlLk6GJQsqaUBKTNV-1" source="B5MP2yaadgVCE5u6oOW5-4" target="B5MP2yaadgVCE5u6oOW5-8" edge="1">
          <mxGeometry width="50" height="50" relative="1" as="geometry">
            <mxPoint x="337" y="170" as="sourcePoint" />
            <mxPoint x="617" y="190" as="targetPoint" />
          </mxGeometry>
        </mxCell>
        <mxCell id="B5MP2yaadgVCE5u6oOW5-40" value="" style="verticalLabelPosition=bottom;verticalAlign=top;html=1;shape=mxgraph.basic.acute_triangle;dx=0.5;direction=west;fillColor=none;" parent="WIyWlLk6GJQsqaUBKTNV-1" vertex="1">
          <mxGeometry x="577" y="91" width="100" height="40" as="geometry" />
        </mxCell>
        <mxCell id="B5MP2yaadgVCE5u6oOW5-41" value="&lt;font style=&quot;font-size: 11px;&quot; face=&quot;Courier New&quot;&gt;&lt;b&gt;john_got_&lt;/b&gt;&lt;/font&gt;&lt;div style=&quot;line-height: 60%;&quot;&gt;&lt;span style=&quot;font-size: 11px; font-family: &amp;quot;Courier New&amp;quot;; background-color: initial;&quot;&gt;&lt;b&gt;an_f&lt;/b&gt;&lt;/span&gt;&lt;/div&gt;" style="text;strokeColor=none;align=center;fillColor=none;html=1;verticalAlign=middle;whiteSpace=wrap;rounded=0;" parent="WIyWlLk6GJQsqaUBKTNV-1" vertex="1">
          <mxGeometry x="596.5" y="87" width="60" height="30" as="geometry" />
        </mxCell>
        <mxCell id="B5MP2yaadgVCE5u6oOW5-42" value="" style="endArrow=classic;html=1;rounded=0;entryX=0.5;entryY=0;entryDx=0;entryDy=0;exitX=0;exitY=0;exitDx=50;exitDy=0;exitPerimeter=0;" parent="WIyWlLk6GJQsqaUBKTNV-1" source="B5MP2yaadgVCE5u6oOW5-27" target="B5MP2yaadgVCE5u6oOW5-5" edge="1">
          <mxGeometry width="50" height="50" relative="1" as="geometry">
            <mxPoint x="567" y="240" as="sourcePoint" />
            <mxPoint x="617" y="190" as="targetPoint" />
          </mxGeometry>
        </mxCell>
        <mxCell id="B5MP2yaadgVCE5u6oOW5-43" value="" style="endArrow=classic;html=1;rounded=0;exitX=0;exitY=0;exitDx=50;exitDy=0;exitPerimeter=0;entryX=0.5;entryY=1;entryDx=0;entryDy=0;entryPerimeter=0;" parent="WIyWlLk6GJQsqaUBKTNV-1" source="B5MP2yaadgVCE5u6oOW5-40" target="B5MP2yaadgVCE5u6oOW5-34" edge="1">
          <mxGeometry width="50" height="50" relative="1" as="geometry">
            <mxPoint x="567" y="240" as="sourcePoint" />
            <mxPoint x="617" y="190" as="targetPoint" />
          </mxGeometry>
        </mxCell>
        <mxCell id="B5MP2yaadgVCE5u6oOW5-44" value="" style="endArrow=classic;html=1;rounded=0;exitX=0;exitY=0;exitDx=50;exitDy=0;exitPerimeter=0;entryX=0.5;entryY=1;entryDx=0;entryDy=0;entryPerimeter=0;" parent="WIyWlLk6GJQsqaUBKTNV-1" source="B5MP2yaadgVCE5u6oOW5-32" target="B5MP2yaadgVCE5u6oOW5-35" edge="1">
          <mxGeometry width="50" height="50" relative="1" as="geometry">
            <mxPoint x="567" y="240" as="sourcePoint" />
            <mxPoint x="617" y="190" as="targetPoint" />
          </mxGeometry>
        </mxCell>
        <mxCell id="B5MP2yaadgVCE5u6oOW5-45" value="" style="endArrow=classic;html=1;rounded=0;exitX=0.5;exitY=1;exitDx=0;exitDy=0;entryX=0.5;entryY=0;entryDx=0;entryDy=0;" parent="WIyWlLk6GJQsqaUBKTNV-1" source="B5MP2yaadgVCE5u6oOW5-29" target="B5MP2yaadgVCE5u6oOW5-10" edge="1">
          <mxGeometry width="50" height="50" relative="1" as="geometry">
            <mxPoint x="567" y="240" as="sourcePoint" />
            <mxPoint x="617" y="190" as="targetPoint" />
          </mxGeometry>
        </mxCell>
        <mxCell id="B5MP2yaadgVCE5u6oOW5-46" value="" style="endArrow=classic;html=1;rounded=0;entryX=0.5;entryY=0;entryDx=0;entryDy=0;exitX=0.5;exitY=1;exitDx=0;exitDy=0;" parent="WIyWlLk6GJQsqaUBKTNV-1" source="B5MP2yaadgVCE5u6oOW5-10" target="B5MP2yaadgVCE5u6oOW5-12" edge="1">
          <mxGeometry width="50" height="50" relative="1" as="geometry">
            <mxPoint x="567" y="240" as="sourcePoint" />
            <mxPoint x="617" y="190" as="targetPoint" />
          </mxGeometry>
        </mxCell>
        <mxCell id="B5MP2yaadgVCE5u6oOW5-47" value="" style="endArrow=classic;html=1;rounded=0;exitX=0.5;exitY=1;exitDx=0;exitDy=0;entryX=0.5;entryY=0;entryDx=0;entryDy=0;" parent="WIyWlLk6GJQsqaUBKTNV-1" source="B5MP2yaadgVCE5u6oOW5-12" target="B5MP2yaadgVCE5u6oOW5-14" edge="1">
          <mxGeometry width="50" height="50" relative="1" as="geometry">
            <mxPoint x="567" y="240" as="sourcePoint" />
            <mxPoint x="617" y="190" as="targetPoint" />
          </mxGeometry>
        </mxCell>
        <mxCell id="B5MP2yaadgVCE5u6oOW5-48" value="" style="endArrow=classic;html=1;rounded=0;entryX=0.77;entryY=0.1;entryDx=0;entryDy=0;entryPerimeter=0;exitX=0.5;exitY=1;exitDx=0;exitDy=0;" parent="WIyWlLk6GJQsqaUBKTNV-1" source="B5MP2yaadgVCE5u6oOW5-14" target="B5MP2yaadgVCE5u6oOW5-18" edge="1">
          <mxGeometry width="50" height="50" relative="1" as="geometry">
            <mxPoint x="567" y="240" as="sourcePoint" />
            <mxPoint x="617" y="190" as="targetPoint" />
          </mxGeometry>
        </mxCell>
        <mxCell id="B5MP2yaadgVCE5u6oOW5-49" value="" style="endArrow=classic;html=1;rounded=0;entryX=0.4;entryY=0;entryDx=0;entryDy=0;entryPerimeter=0;exitX=0;exitY=0;exitDx=50;exitDy=0;exitPerimeter=0;" parent="WIyWlLk6GJQsqaUBKTNV-1" source="B5MP2yaadgVCE5u6oOW5-35" target="B5MP2yaadgVCE5u6oOW5-18" edge="1">
          <mxGeometry width="50" height="50" relative="1" as="geometry">
            <mxPoint x="567" y="240" as="sourcePoint" />
            <mxPoint x="617" y="190" as="targetPoint" />
          </mxGeometry>
        </mxCell>
        <mxCell id="B5MP2yaadgVCE5u6oOW5-51" value="&lt;font style=&quot;font-size: 20px;&quot;&gt;Problem&lt;/font&gt;" style="text;strokeColor=none;align=left;fillColor=none;html=1;verticalAlign=middle;whiteSpace=wrap;rounded=0;" parent="WIyWlLk6GJQsqaUBKTNV-1" vertex="1">
          <mxGeometry x="947" y="80" width="60" height="30" as="geometry" />
        </mxCell>
        <mxCell id="B5MP2yaadgVCE5u6oOW5-52" value="&lt;span style=&quot;font-size: 20px;&quot;&gt;Leaves&lt;/span&gt;" style="text;strokeColor=none;align=left;fillColor=none;html=1;verticalAlign=middle;whiteSpace=wrap;rounded=0;" parent="WIyWlLk6GJQsqaUBKTNV-1" vertex="1">
          <mxGeometry x="947" y="189" width="60" height="30" as="geometry" />
        </mxCell>
        <mxCell id="B5MP2yaadgVCE5u6oOW5-53" value="&lt;span style=&quot;font-size: 20px;&quot;&gt;Inferred&lt;/span&gt;" style="text;strokeColor=none;align=left;fillColor=none;html=1;verticalAlign=middle;whiteSpace=wrap;rounded=0;" parent="WIyWlLk6GJQsqaUBKTNV-1" vertex="1">
          <mxGeometry x="947" y="270" width="60" height="30" as="geometry" />
        </mxCell>
        <mxCell id="B5MP2yaadgVCE5u6oOW5-54" value="&lt;span style=&quot;font-size: 20px;&quot;&gt;Root&lt;/span&gt;" style="text;strokeColor=none;align=left;fillColor=none;html=1;verticalAlign=middle;whiteSpace=wrap;rounded=0;" parent="WIyWlLk6GJQsqaUBKTNV-1" vertex="1">
          <mxGeometry x="947" y="434" width="60" height="30" as="geometry" />
        </mxCell>
        <mxCell id="B5MP2yaadgVCE5u6oOW5-55" value="Copied" style="text;strokeColor=none;align=center;fillColor=none;html=1;verticalAlign=middle;whiteSpace=wrap;rounded=0;" parent="WIyWlLk6GJQsqaUBKTNV-1" vertex="1">
          <mxGeometry x="499" y="140" width="60" height="30" as="geometry" />
        </mxCell>
        <mxCell id="B5MP2yaadgVCE5u6oOW5-56" value="Copied" style="text;strokeColor=none;align=center;fillColor=none;html=1;verticalAlign=middle;whiteSpace=wrap;rounded=0;" parent="WIyWlLk6GJQsqaUBKTNV-1" vertex="1">
          <mxGeometry x="620" y="140" width="60" height="30" as="geometry" />
        </mxCell>
        <mxCell id="B5MP2yaadgVCE5u6oOW5-57" value="Copied" style="text;strokeColor=none;align=center;fillColor=none;html=1;verticalAlign=middle;whiteSpace=wrap;rounded=0;" parent="WIyWlLk6GJQsqaUBKTNV-1" vertex="1">
          <mxGeometry x="739" y="140" width="60" height="30" as="geometry" />
        </mxCell>
        <mxCell id="B5MP2yaadgVCE5u6oOW5-58" value="Copied" style="text;strokeColor=none;align=center;fillColor=none;html=1;verticalAlign=middle;whiteSpace=wrap;rounded=0;" parent="WIyWlLk6GJQsqaUBKTNV-1" vertex="1">
          <mxGeometry x="859" y="140" width="60" height="30" as="geometry" />
        </mxCell>
        <mxCell id="B5MP2yaadgVCE5u6oOW5-66" value="" style="endArrow=classic;html=1;rounded=0;strokeWidth=2;" parent="WIyWlLk6GJQsqaUBKTNV-1" target="B5MP2yaadgVCE5u6oOW5-68" edge="1">
          <mxGeometry width="50" height="50" relative="1" as="geometry">
            <mxPoint x="811" y="251.15322033898315" as="sourcePoint" />
            <mxPoint x="270" y="255" as="targetPoint" />
          </mxGeometry>
        </mxCell>
        <mxCell id="B5MP2yaadgVCE5u6oOW5-68" value="&lt;font face=&quot;Courier New&quot; style=&quot;font-size: 16px;&quot;&gt;&lt;b&gt;{con1}&lt;/b&gt;&lt;/font&gt;&lt;font style=&quot;&quot;&gt;&lt;font style=&quot;font-size: 20px;&quot;&gt;&amp;nbsp;&lt;/font&gt;&lt;span style=&quot;font-size: 20px; color: rgb(32, 33, 34); font-family: sans-serif; background-color: rgb(255, 255, 255);&quot;&gt;⊨&lt;/span&gt;&lt;span style=&quot;color: rgb(32, 33, 34); background-color: rgb(255, 255, 255);&quot;&gt;&lt;font style=&quot;&quot;&gt;&lt;font style=&quot;font-size: 20px;&quot; face=&quot;sans-serif&quot;&gt;&amp;nbsp;&lt;/font&gt;&lt;font style=&quot;font-size: 16px;&quot; face=&quot;Courier New&quot;&gt;&lt;b&gt;~inf1&lt;/b&gt;&lt;/font&gt;&lt;/font&gt;&lt;/span&gt;&lt;/font&gt;" style="text;strokeColor=none;align=left;fillColor=none;html=1;verticalAlign=middle;whiteSpace=wrap;rounded=0;" parent="WIyWlLk6GJQsqaUBKTNV-1" vertex="1">
          <mxGeometry x="50" y="238" width="140" height="30" as="geometry" />
        </mxCell>
        <mxCell id="B5MP2yaadgVCE5u6oOW5-69" value="&lt;font size=&quot;1&quot; face=&quot;Courier New&quot;&gt;&lt;b style=&quot;font-size: 16px;&quot;&gt;cth&lt;/b&gt;&lt;/font&gt;" style="text;strokeColor=none;align=center;fillColor=none;html=1;verticalAlign=middle;whiteSpace=wrap;rounded=0;" parent="WIyWlLk6GJQsqaUBKTNV-1" vertex="1">
          <mxGeometry x="259" y="229" width="60" height="30" as="geometry" />
        </mxCell>
        <mxCell id="B5MP2yaadgVCE5u6oOW5-70" value="" style="group" parent="WIyWlLk6GJQsqaUBKTNV-1" vertex="1" connectable="0">
          <mxGeometry x="397" y="429" width="100" height="40" as="geometry" />
        </mxCell>
        <mxCell id="B5MP2yaadgVCE5u6oOW5-20" value="" style="ellipse;whiteSpace=wrap;html=1;" parent="B5MP2yaadgVCE5u6oOW5-70" vertex="1">
          <mxGeometry width="100" height="40" as="geometry" />
        </mxCell>
        <mxCell id="B5MP2yaadgVCE5u6oOW5-21" value="&lt;font size=&quot;1&quot; face=&quot;Courier New&quot; style=&quot;&quot;&gt;&lt;b style=&quot;font-size: 20px;&quot;&gt;inf5&lt;/b&gt;&lt;/font&gt;" style="text;strokeColor=none;align=center;fillColor=none;html=1;verticalAlign=middle;whiteSpace=wrap;rounded=0;" parent="B5MP2yaadgVCE5u6oOW5-70" vertex="1">
          <mxGeometry x="20" y="5" width="60" height="30" as="geometry" />
        </mxCell>
        <mxCell id="B5MP2yaadgVCE5u6oOW5-72" value="" style="group" parent="WIyWlLk6GJQsqaUBKTNV-1" vertex="1" connectable="0">
          <mxGeometry x="457" y="349" width="100" height="40" as="geometry" />
        </mxCell>
        <mxCell id="B5MP2yaadgVCE5u6oOW5-16" value="" style="ellipse;whiteSpace=wrap;html=1;" parent="B5MP2yaadgVCE5u6oOW5-72" vertex="1">
          <mxGeometry width="100" height="40" as="geometry" />
        </mxCell>
        <mxCell id="B5MP2yaadgVCE5u6oOW5-17" value="&lt;font size=&quot;1&quot; face=&quot;Courier New&quot; style=&quot;&quot;&gt;&lt;b style=&quot;font-size: 20px;&quot;&gt;inf4&lt;/b&gt;&lt;/font&gt;" style="text;strokeColor=none;align=center;fillColor=none;html=1;verticalAlign=middle;whiteSpace=wrap;rounded=0;" parent="B5MP2yaadgVCE5u6oOW5-72" vertex="1">
          <mxGeometry x="20" y="5" width="60" height="30" as="geometry" />
        </mxCell>
        <mxCell id="B5MP2yaadgVCE5u6oOW5-82" value="" style="endArrow=classic;html=1;rounded=0;strokeWidth=2;exitX=-0.001;exitY=0.669;exitDx=0;exitDy=0;exitPerimeter=0;entryX=1;entryY=0.5;entryDx=0;entryDy=0;" parent="WIyWlLk6GJQsqaUBKTNV-1" target="B5MP2yaadgVCE5u6oOW5-83" edge="1">
          <mxGeometry width="50" height="50" relative="1" as="geometry">
            <mxPoint x="449.88599999999997" y="345.18000000000006" as="sourcePoint" />
            <mxPoint x="250" y="351" as="targetPoint" />
          </mxGeometry>
        </mxCell>
        <mxCell id="B5MP2yaadgVCE5u6oOW5-83" value="&lt;font face=&quot;Courier New&quot; style=&quot;font-size: 16px;&quot;&gt;&lt;b&gt;{ASk(ax3)}&lt;/b&gt;&lt;/font&gt;&lt;font style=&quot;&quot;&gt;&lt;font style=&quot;font-size: 20px;&quot;&gt;&amp;nbsp;&lt;/font&gt;&lt;span style=&quot;font-size: 20px; color: rgb(32, 33, 34); font-family: sans-serif; background-color: rgb(255, 255, 255);&quot;&gt;⊨&amp;nbsp;&lt;/span&gt;&lt;span style=&quot;color: rgb(32, 33, 34); background-color: rgb(255, 255, 255);&quot;&gt;&lt;font size=&quot;1&quot; face=&quot;Courier New&quot; style=&quot;&quot;&gt;&lt;b style=&quot;font-size: 16px;&quot;&gt;inf4&lt;/b&gt;&lt;/font&gt;&lt;/span&gt;&lt;/font&gt;&lt;div&gt;&lt;font style=&quot;&quot;&gt;&lt;font style=&quot;&quot; size=&quot;1&quot;&gt;&lt;b style=&quot;font-size: 16px;&quot;&gt;&lt;font face=&quot;Courier New&quot; color=&quot;#202122&quot;&gt;&lt;span style=&quot;background-color: rgb(255, 255, 255);&quot;&gt;{inf4}&lt;/span&gt;&lt;/font&gt;&lt;span style=&quot;background-color: rgb(251, 251, 251);&quot;&gt;&amp;nbsp;&lt;/span&gt;&lt;/b&gt;&lt;/font&gt;&lt;/font&gt;&lt;span style=&quot;font-size: 20px; color: rgb(32, 33, 34); font-family: sans-serif; background-color: rgb(255, 255, 255);&quot;&gt;⊨&amp;nbsp;&lt;/span&gt;&lt;b style=&quot;font-family: &amp;quot;Courier New&amp;quot;; background-color: rgb(255, 255, 255); color: rgb(32, 33, 34); font-size: 16px;&quot;&gt;ax3&lt;/b&gt;&lt;/div&gt;" style="text;strokeColor=none;align=left;fillColor=none;html=1;verticalAlign=middle;whiteSpace=wrap;rounded=0;" parent="WIyWlLk6GJQsqaUBKTNV-1" vertex="1">
          <mxGeometry x="50" y="330" width="170" height="31" as="geometry" />
        </mxCell>
        <mxCell id="B5MP2yaadgVCE5u6oOW5-84" value="&lt;font size=&quot;1&quot; face=&quot;Courier New&quot;&gt;&lt;b style=&quot;font-size: 16px;&quot;&gt;esa&lt;/b&gt;&lt;/font&gt;" style="text;strokeColor=none;align=center;fillColor=none;html=1;verticalAlign=middle;whiteSpace=wrap;rounded=0;" parent="WIyWlLk6GJQsqaUBKTNV-1" vertex="1">
          <mxGeometry x="260" y="321" width="60" height="30" as="geometry" />
        </mxCell>
        <mxCell id="B5MP2yaadgVCE5u6oOW5-132" value="" style="group" parent="WIyWlLk6GJQsqaUBKTNV-1" vertex="1" connectable="0">
          <mxGeometry x="739" y="430" width="100" height="40" as="geometry" />
        </mxCell>
        <mxCell id="B5MP2yaadgVCE5u6oOW5-18" value="" style="ellipse;whiteSpace=wrap;html=1;" parent="B5MP2yaadgVCE5u6oOW5-132" vertex="1">
          <mxGeometry width="100" height="40" as="geometry" />
        </mxCell>
        <mxCell id="B5MP2yaadgVCE5u6oOW5-19" value="&lt;font face=&quot;Courier New&quot; style=&quot;font-size: 20px;&quot;&gt;&lt;b&gt;inf3&lt;/b&gt;&lt;/font&gt;" style="text;strokeColor=none;align=center;fillColor=none;html=1;verticalAlign=middle;whiteSpace=wrap;rounded=0;" parent="B5MP2yaadgVCE5u6oOW5-132" vertex="1">
          <mxGeometry x="20" y="5" width="60" height="30" as="geometry" />
        </mxCell>
        <mxCell id="B5MP2yaadgVCE5u6oOW5-136" value="&lt;font size=&quot;1&quot; face=&quot;Courier New&quot;&gt;&lt;b style=&quot;font-size: 16px;&quot;&gt;thm&lt;/b&gt;&lt;/font&gt;" style="text;strokeColor=none;align=center;fillColor=none;html=1;verticalAlign=middle;whiteSpace=wrap;rounded=0;" parent="WIyWlLk6GJQsqaUBKTNV-1" vertex="1">
          <mxGeometry x="273" y="414" width="60" height="30" as="geometry" />
        </mxCell>
        <mxCell id="B5MP2yaadgVCE5u6oOW5-137" value="&lt;font size=&quot;1&quot; face=&quot;Courier New&quot; style=&quot;&quot;&gt;&lt;b style=&quot;font-size: 16px;&quot;&gt;{ax2,inf3,inf5}&lt;/b&gt;&lt;/font&gt;&lt;font style=&quot;&quot;&gt;&lt;font style=&quot;font-size: 20px;&quot;&gt;&amp;nbsp;&lt;/font&gt;&lt;span style=&quot;font-size: 20px; color: rgb(32, 33, 34); font-family: sans-serif; background-color: rgb(255, 255, 255);&quot;&gt;⊨&lt;/span&gt;&lt;span style=&quot;color: rgb(32, 33, 34); background-color: rgb(255, 255, 255);&quot;&gt;&lt;font style=&quot;font-family: sans-serif; font-size: 20px;&quot;&gt;&amp;nbsp;&lt;/font&gt;&lt;font face=&quot;Courier New&quot; style=&quot;font-size: 16px;&quot;&gt;&lt;b&gt;proof&lt;/b&gt;&lt;/font&gt;&lt;/span&gt;&lt;/font&gt;" style="text;strokeColor=none;align=left;fillColor=none;html=1;verticalAlign=middle;whiteSpace=wrap;rounded=0;" parent="WIyWlLk6GJQsqaUBKTNV-1" vertex="1">
          <mxGeometry x="50" y="422" width="220" height="30" as="geometry" />
        </mxCell>
        <mxCell id="B5MP2yaadgVCE5u6oOW5-138" value="" style="endArrow=classic;html=1;rounded=0;strokeWidth=2;" parent="WIyWlLk6GJQsqaUBKTNV-1" edge="1">
          <mxGeometry width="50" height="50" relative="1" as="geometry">
            <mxPoint x="390" y="438.1219512195123" as="sourcePoint" />
            <mxPoint x="275" y="437" as="targetPoint" />
          </mxGeometry>
        </mxCell>
        <mxCell id="B5MP2yaadgVCE5u6oOW5-147" value="&lt;i style=&quot;font-size: 20px;&quot;&gt;Leaf verification&lt;/i&gt;" style="text;strokeColor=none;align=left;fillColor=none;html=1;verticalAlign=middle;whiteSpace=wrap;rounded=0;" parent="WIyWlLk6GJQsqaUBKTNV-1" vertex="1">
          <mxGeometry x="947" y="140" width="163" height="30" as="geometry" />
        </mxCell>
        <mxCell id="B5MP2yaadgVCE5u6oOW5-148" value="&lt;i style=&quot;font-size: 20px;&quot;&gt;Structural verification&lt;/i&gt;" style="text;strokeColor=none;align=left;fillColor=none;html=1;verticalAlign=middle;whiteSpace=wrap;rounded=0;" parent="WIyWlLk6GJQsqaUBKTNV-1" vertex="1">
          <mxGeometry x="521.5" y="500" width="211" height="30" as="geometry" />
        </mxCell>
        <mxCell id="B5MP2yaadgVCE5u6oOW5-64" value="&lt;font size=&quot;1&quot; face=&quot;Courier New&quot;&gt;&lt;b style=&quot;font-size: 16px;&quot;&gt;thm&lt;/b&gt;&lt;/font&gt;" style="text;strokeColor=none;align=center;fillColor=none;html=1;verticalAlign=middle;whiteSpace=wrap;rounded=0;rotation=30;" parent="WIyWlLk6GJQsqaUBKTNV-1" vertex="1">
          <mxGeometry x="258" y="102" width="58" height="30" as="geometry" />
        </mxCell>
        <mxCell id="B5MP2yaadgVCE5u6oOW5-59" value="&lt;font face=&quot;Courier New&quot; style=&quot;font-size: 16px;&quot;&gt;&lt;b&gt;{&lt;font style=&quot;font-size: 16px;&quot;&gt;f_is_not_a&lt;/font&gt;}&lt;/b&gt;&lt;/font&gt;&lt;font style=&quot;font-size: 16px;&quot;&gt;&lt;font face=&quot;Helvetica&quot; style=&quot;font-size: 16px;&quot;&gt;&lt;b style=&quot;&quot;&gt;&amp;nbsp;&lt;/b&gt;&lt;/font&gt;&lt;span style=&quot;font-size: 20px; color: rgb(32, 33, 34); background-color: rgb(255, 255, 255); font-family: sans-serif;&quot;&gt;⊨&lt;/span&gt;&lt;span style=&quot;font-size: 20px; color: rgb(32, 33, 34); background-color: rgb(255, 255, 255); font-family: sans-serif;&quot;&gt;&lt;font style=&quot;font-size: 20px;&quot;&gt;&amp;nbsp;&lt;/font&gt;&lt;/span&gt;&lt;/font&gt;&lt;span style=&quot;color: rgb(32, 33, 34); background-color: rgb(255, 255, 255);&quot;&gt;&lt;font face=&quot;Courier New&quot; size=&quot;1&quot; style=&quot;&quot;&gt;&lt;b style=&quot;font-size: 16px;&quot;&gt;ax4&lt;/b&gt;&lt;/font&gt;&lt;/span&gt;" style="text;strokeColor=none;align=left;fillColor=none;html=1;verticalAlign=middle;whiteSpace=wrap;rounded=0;" parent="WIyWlLk6GJQsqaUBKTNV-1" vertex="1">
          <mxGeometry x="47.5" y="80" width="173" height="30" as="geometry" />
        </mxCell>
        <mxCell id="B5MP2yaadgVCE5u6oOW5-60" value="" style="endArrow=classic;html=1;rounded=0;entryX=1;entryY=0.5;entryDx=0;entryDy=0;exitX=-0.001;exitY=0.421;exitDx=0;exitDy=0;strokeWidth=2;exitPerimeter=0;" parent="WIyWlLk6GJQsqaUBKTNV-1" source="B5MP2yaadgVCE5u6oOW5-61" target="B5MP2yaadgVCE5u6oOW5-59" edge="1">
          <mxGeometry width="50" height="50" relative="1" as="geometry">
            <mxPoint x="327" y="154.95000000000005" as="sourcePoint" />
            <mxPoint x="260" y="163" as="targetPoint" />
          </mxGeometry>
        </mxCell>
        <mxCell id="B5MP2yaadgVCE5u6oOW5-149" value="&lt;i style=&quot;font-size: 20px;&quot;&gt;Inference verification&lt;/i&gt;" style="text;strokeColor=none;align=left;fillColor=none;html=1;verticalAlign=middle;whiteSpace=wrap;rounded=0;rotation=-90;" parent="WIyWlLk6GJQsqaUBKTNV-1" vertex="1">
          <mxGeometry x="-80" y="370" width="211" height="30" as="geometry" />
        </mxCell>
        <mxCell id="-FWcwAjbTz1GdDVnPAq6-0" value="" style="group" parent="WIyWlLk6GJQsqaUBKTNV-1" vertex="1" connectable="0">
          <mxGeometry x="457" y="190" width="100" height="41" as="geometry" />
        </mxCell>
        <mxCell id="B5MP2yaadgVCE5u6oOW5-7" value="" style="verticalLabelPosition=bottom;verticalAlign=top;html=1;shape=mxgraph.basic.acute_triangle;dx=0.5;direction=west;fillColor=none;" parent="-FWcwAjbTz1GdDVnPAq6-0" vertex="1">
          <mxGeometry y="1" width="100" height="40" as="geometry" />
        </mxCell>
        <mxCell id="B5MP2yaadgVCE5u6oOW5-5" value="&lt;font face=&quot;Courier New&quot; style=&quot;font-size: 20px;&quot;&gt;&lt;b&gt;ax3&lt;/b&gt;&lt;/font&gt;" style="text;strokeColor=none;align=center;fillColor=none;html=1;verticalAlign=middle;whiteSpace=wrap;rounded=0;" parent="-FWcwAjbTz1GdDVnPAq6-0" vertex="1">
          <mxGeometry x="20" width="60" height="30" as="geometry" />
        </mxCell>
        <mxCell id="-FWcwAjbTz1GdDVnPAq6-4" value="&lt;font size=&quot;1&quot; face=&quot;Courier New&quot; style=&quot;&quot;&gt;&lt;b style=&quot;font-size: 16px;&quot;&gt;{ax1,ax2,ax3,ax4}&lt;/b&gt;&lt;/font&gt;" style="text;strokeColor=none;align=left;fillColor=none;html=1;verticalAlign=middle;whiteSpace=wrap;rounded=0;" parent="WIyWlLk6GJQsqaUBKTNV-1" vertex="1">
          <mxGeometry x="47.5" y="160" width="173" height="30" as="geometry" />
        </mxCell>
        <mxCell id="-FWcwAjbTz1GdDVnPAq6-6" value="&lt;font size=&quot;1&quot; face=&quot;Courier New&quot;&gt;&lt;b style=&quot;font-size: 16px;&quot;&gt;sat&lt;/b&gt;&lt;/font&gt;" style="text;strokeColor=none;align=center;fillColor=none;html=1;verticalAlign=middle;whiteSpace=wrap;rounded=0;rotation=30;" parent="WIyWlLk6GJQsqaUBKTNV-1" vertex="1">
          <mxGeometry x="258" y="174" width="60" height="30" as="geometry" />
        </mxCell>
        <mxCell id="-FWcwAjbTz1GdDVnPAq6-7" value="" style="endArrow=classic;html=1;rounded=0;exitX=0;exitY=0.5;exitDx=0;exitDy=0;strokeWidth=2;entryX=1;entryY=0.5;entryDx=0;entryDy=0;" parent="WIyWlLk6GJQsqaUBKTNV-1" target="-FWcwAjbTz1GdDVnPAq6-4" edge="1">
          <mxGeometry width="50" height="50" relative="1" as="geometry">
            <mxPoint x="325" y="218" as="sourcePoint" />
            <mxPoint x="220" y="220" as="targetPoint" />
          </mxGeometry>
        </mxCell>
        <mxCell id="1gBdFF_hgad_Mp2J1Vji-0" value="&lt;b style=&quot;font-size: 11px;&quot;&gt;&lt;font face=&quot;Courier New&quot; style=&quot;font-size: 11px;&quot;&gt;f_is_&lt;/font&gt;&lt;/b&gt;&lt;div style=&quot;font-size: 11px; line-height: 60%;&quot;&gt;&lt;b style=&quot;&quot;&gt;&lt;font face=&quot;Courier New&quot; style=&quot;font-size: 11px;&quot;&gt;not_a&lt;/font&gt;&lt;/b&gt;&lt;/div&gt;" style="text;strokeColor=none;align=center;fillColor=none;html=1;verticalAlign=middle;whiteSpace=wrap;rounded=0;" parent="WIyWlLk6GJQsqaUBKTNV-1" vertex="1">
          <mxGeometry x="357" y="87" width="60" height="30" as="geometry" />
        </mxCell>
        <mxCell id="B5MP2yaadgVCE5u6oOW5-32" value="" style="verticalLabelPosition=bottom;verticalAlign=top;html=1;shape=mxgraph.basic.acute_triangle;dx=0.5;direction=west;fillColor=none;" parent="WIyWlLk6GJQsqaUBKTNV-1" vertex="1">
          <mxGeometry x="697" y="90" width="100" height="40" as="geometry" />
        </mxCell>
        <mxCell id="1gBdFF_hgad_Mp2J1Vji-1" value="&lt;font face=&quot;Courier New&quot;&gt;&lt;span style=&quot;font-size: 11px;&quot;&gt;&lt;b&gt;all_created&lt;/b&gt;&lt;/span&gt;&lt;/font&gt;&lt;div style=&quot;line-height: 60%;&quot;&gt;&lt;font face=&quot;Courier New&quot;&gt;&lt;span style=&quot;font-size: 11px;&quot;&gt;&lt;b&gt;_equal&lt;/b&gt;&lt;/span&gt;&lt;/font&gt;&lt;/div&gt;" style="text;strokeColor=none;align=center;fillColor=none;html=1;verticalAlign=middle;whiteSpace=wrap;rounded=0;" parent="WIyWlLk6GJQsqaUBKTNV-1" vertex="1">
          <mxGeometry x="717" y="85" width="60" height="30" as="geometry" />
        </mxCell>
        <mxCell id="1gBdFF_hgad_Mp2J1Vji-3" value="" style="group" parent="WIyWlLk6GJQsqaUBKTNV-1" vertex="1" connectable="0">
          <mxGeometry x="49.5" y="109" width="120.5" height="41" as="geometry" />
        </mxCell>
        <mxCell id="B5MP2yaadgVCE5u6oOW5-93" value="" style="rounded=1;whiteSpace=wrap;html=1;fillColor=none;container=0;" parent="1gBdFF_hgad_Mp2J1Vji-3" vertex="1">
          <mxGeometry y="16" width="120.5" height="20" as="geometry" />
        </mxCell>
        <mxCell id="B5MP2yaadgVCE5u6oOW5-0" value="&lt;span style=&quot;font-size: 11px;&quot;&gt;Trusted theorem prover&lt;/span&gt;" style="text;strokeColor=none;align=center;fillColor=none;html=1;verticalAlign=middle;whiteSpace=wrap;rounded=0;container=0;" parent="1gBdFF_hgad_Mp2J1Vji-3" vertex="1">
          <mxGeometry y="11" width="120.5" height="30" as="geometry" />
        </mxCell>
        <mxCell id="B5MP2yaadgVCE5u6oOW5-90" value="" style="shape=singleArrow;direction=south;whiteSpace=wrap;html=1;fillColor=#808080;strokeColor=#808080;container=0;" parent="1gBdFF_hgad_Mp2J1Vji-3" vertex="1">
          <mxGeometry x="54.5" width="11.5" height="14" as="geometry" />
        </mxCell>
        <mxCell id="1gBdFF_hgad_Mp2J1Vji-4" value="" style="group" parent="WIyWlLk6GJQsqaUBKTNV-1" vertex="1" connectable="0">
          <mxGeometry x="50" y="184" width="120.5" height="41" as="geometry" />
        </mxCell>
        <mxCell id="1gBdFF_hgad_Mp2J1Vji-5" value="" style="rounded=1;whiteSpace=wrap;html=1;fillColor=none;container=0;" parent="1gBdFF_hgad_Mp2J1Vji-4" vertex="1">
          <mxGeometry y="16" width="120.5" height="20" as="geometry" />
        </mxCell>
        <mxCell id="1gBdFF_hgad_Mp2J1Vji-6" value="&lt;span style=&quot;font-size: 11px;&quot;&gt;Trusted model finder&lt;/span&gt;" style="text;strokeColor=none;align=center;fillColor=none;html=1;verticalAlign=middle;whiteSpace=wrap;rounded=0;container=0;" parent="1gBdFF_hgad_Mp2J1Vji-4" vertex="1">
          <mxGeometry y="11" width="120.5" height="30" as="geometry" />
        </mxCell>
        <mxCell id="1gBdFF_hgad_Mp2J1Vji-7" value="" style="shape=singleArrow;direction=south;whiteSpace=wrap;html=1;fillColor=#808080;strokeColor=#808080;container=0;" parent="1gBdFF_hgad_Mp2J1Vji-4" vertex="1">
          <mxGeometry x="54.5" width="11.5" height="14" as="geometry" />
        </mxCell>
        <mxCell id="1gBdFF_hgad_Mp2J1Vji-8" value="" style="group" parent="WIyWlLk6GJQsqaUBKTNV-1" vertex="1" connectable="0">
          <mxGeometry x="50" y="265" width="120.5" height="41" as="geometry" />
        </mxCell>
        <mxCell id="1gBdFF_hgad_Mp2J1Vji-9" value="" style="rounded=1;whiteSpace=wrap;html=1;fillColor=none;container=0;" parent="1gBdFF_hgad_Mp2J1Vji-8" vertex="1">
          <mxGeometry y="16" width="120.5" height="20" as="geometry" />
        </mxCell>
        <mxCell id="1gBdFF_hgad_Mp2J1Vji-10" value="&lt;span style=&quot;font-size: 11px;&quot;&gt;Trusted theorem prover&lt;/span&gt;" style="text;strokeColor=none;align=center;fillColor=none;html=1;verticalAlign=middle;whiteSpace=wrap;rounded=0;container=0;" parent="1gBdFF_hgad_Mp2J1Vji-8" vertex="1">
          <mxGeometry y="11" width="120.5" height="30" as="geometry" />
        </mxCell>
        <mxCell id="1gBdFF_hgad_Mp2J1Vji-11" value="" style="shape=singleArrow;direction=south;whiteSpace=wrap;html=1;fillColor=#808080;strokeColor=#808080;container=0;" parent="1gBdFF_hgad_Mp2J1Vji-8" vertex="1">
          <mxGeometry x="54.5" width="11.5" height="14" as="geometry" />
        </mxCell>
        <mxCell id="1gBdFF_hgad_Mp2J1Vji-12" value="" style="group" parent="WIyWlLk6GJQsqaUBKTNV-1" vertex="1" connectable="0">
          <mxGeometry x="50" y="370" width="120.5" height="41" as="geometry" />
        </mxCell>
        <mxCell id="1gBdFF_hgad_Mp2J1Vji-13" value="" style="rounded=1;whiteSpace=wrap;html=1;fillColor=none;container=0;" parent="1gBdFF_hgad_Mp2J1Vji-12" vertex="1">
          <mxGeometry y="16" width="120.5" height="20" as="geometry" />
        </mxCell>
        <mxCell id="1gBdFF_hgad_Mp2J1Vji-14" value="&lt;span style=&quot;font-size: 11px;&quot;&gt;Trusted theorem prover&lt;/span&gt;" style="text;strokeColor=none;align=center;fillColor=none;html=1;verticalAlign=middle;whiteSpace=wrap;rounded=0;container=0;" parent="1gBdFF_hgad_Mp2J1Vji-12" vertex="1">
          <mxGeometry y="11" width="120.5" height="30" as="geometry" />
        </mxCell>
        <mxCell id="1gBdFF_hgad_Mp2J1Vji-15" value="" style="shape=singleArrow;direction=south;whiteSpace=wrap;html=1;fillColor=#808080;strokeColor=#808080;container=0;" parent="1gBdFF_hgad_Mp2J1Vji-12" vertex="1">
          <mxGeometry x="54.5" width="11.5" height="14" as="geometry" />
        </mxCell>
        <mxCell id="1gBdFF_hgad_Mp2J1Vji-16" value="" style="group" parent="WIyWlLk6GJQsqaUBKTNV-1" vertex="1" connectable="0">
          <mxGeometry x="50" y="449" width="120.5" height="41" as="geometry" />
        </mxCell>
        <mxCell id="1gBdFF_hgad_Mp2J1Vji-17" value="" style="rounded=1;whiteSpace=wrap;html=1;fillColor=none;container=0;" parent="1gBdFF_hgad_Mp2J1Vji-16" vertex="1">
          <mxGeometry y="16" width="120.5" height="20" as="geometry" />
        </mxCell>
        <mxCell id="1gBdFF_hgad_Mp2J1Vji-18" value="&lt;span style=&quot;font-size: 11px;&quot;&gt;Trusted theorem prover&lt;/span&gt;" style="text;strokeColor=none;align=center;fillColor=none;html=1;verticalAlign=middle;whiteSpace=wrap;rounded=0;container=0;" parent="1gBdFF_hgad_Mp2J1Vji-16" vertex="1">
          <mxGeometry y="11" width="120.5" height="30" as="geometry" />
        </mxCell>
        <mxCell id="1gBdFF_hgad_Mp2J1Vji-19" value="" style="shape=singleArrow;direction=south;whiteSpace=wrap;html=1;fillColor=#808080;strokeColor=#808080;container=0;" parent="1gBdFF_hgad_Mp2J1Vji-16" vertex="1">
          <mxGeometry x="54.5" width="11.5" height="14" as="geometry" />
        </mxCell>
        <mxCell id="sORvXmTDtZ2WQZ7CLgW--1" value="" style="group" vertex="1" connectable="0" parent="WIyWlLk6GJQsqaUBKTNV-1">
          <mxGeometry x="576.5" y="429" width="100" height="40" as="geometry" />
        </mxCell>
        <mxCell id="B5MP2yaadgVCE5u6oOW5-22" value="" style="rounded=0;whiteSpace=wrap;html=1;" parent="sORvXmTDtZ2WQZ7CLgW--1" vertex="1">
          <mxGeometry width="100" height="40" as="geometry" />
        </mxCell>
        <mxCell id="B5MP2yaadgVCE5u6oOW5-50" value="&lt;font face=&quot;Courier New&quot; style=&quot;font-size: 20px;&quot;&gt;&lt;b&gt;proof&lt;/b&gt;&lt;/font&gt;" style="text;strokeColor=none;align=center;fillColor=none;html=1;verticalAlign=middle;whiteSpace=wrap;rounded=0;" parent="sORvXmTDtZ2WQZ7CLgW--1" vertex="1">
          <mxGeometry x="20" y="5" width="60" height="30" as="geometry" />
        </mxCell>
        <mxCell id="B5MP2yaadgVCE5u6oOW5-133" value="" style="endArrow=none;html=1;rounded=0;dashed=1;strokeWidth=2;entryX=0.993;entryY=0.069;entryDx=0;entryDy=0;entryPerimeter=0;exitX=1;exitY=0;exitDx=0;exitDy=0;" parent="sORvXmTDtZ2WQZ7CLgW--1" source="gpMVGgdq6QNUZybopsVq-2" target="gpMVGgdq6QNUZybopsVq-1" edge="1">
          <mxGeometry width="50" height="50" relative="1" as="geometry">
            <mxPoint x="-187" y="50" as="sourcePoint" />
            <mxPoint x="273" y="50" as="targetPoint" />
          </mxGeometry>
        </mxCell>
      </root>
    </mxGraphModel>
  </diagram>
</mxfile>
